<?xml version="1.0" encoding="UTF-8"?> <svg xmlns="http://www.w3.org/2000/svg" xmlns:xlink="http://www.w3.org/1999/xlink" width="341px" height="186px" viewBox="0 0 341 186"><!-- Generator: Sketch 52.5 (67469) - http://www.bohemiancoding.com/sketch --><title>moyen</title><desc>Created with Sketch.</desc><g id="Page-1" stroke="none" stroke-width="1" fill="none" fill-rule="evenodd"><g id="moyen" transform="translate(-2.000000, -40.000000)"><path d="M160.5,104 C159.119288,104 158,102.880712 158,101.5 C158,100.119288 159.119288,99 160.5,99 C161.880712,99 163,100.119288 163,101.5 C163,102.880712 161.880712,104 160.5,104 Z M162.5,113 C161.119288,113 160,111.880712 160,110.5 C160,109.119288 161.119288,108 162.5,108 C163.880712,108 165,109.119288 165,110.5 C165,111.880712 163.880712,113 162.5,113 Z M161.5,122 C160.119288,122 159,120.880712 159,119.5 C159,118.119288 160.119288,117 161.5,117 C162.880712,117 164,118.119288 164,119.5 C164,120.880712 162.880712,122 161.5,122 Z M157.5,130 C156.119288,130 155,128.880712 155,127.5 C155,126.119288 156.119288,125 157.5,125 C158.880712,125 160,126.119288 160,127.5 C160,128.880712 158.880712,130 157.5,130 Z M152.5,138 C151.119288,138 150,136.880712 150,135.5 C150,134.119288 151.119288,133 152.5,133 C153.880712,133 155,134.119288 155,135.5 C155,136.880712 153.880712,138 152.5,138 Z M150.5,146 C149.119288,146 148,144.880712 148,143.5 C148,142.119288 149.119288,141 150.5,141 C151.880712,141 153,142.119288 153,143.5 C153,144.880712 151.880712,146 150.5,146 Z M150.5,154 C149.119288,154 148,152.880712 148,151.5 C148,150.119288 149.119288,149 150.5,149 C151.880712,149 153,150.119288 153,151.5 C153,152.880712 151.880712,154 150.5,154 Z M152.5,162 C151.119288,162 150,160.880712 150,159.5 C150,158.119288 151.119288,157 152.5,157 C153.880712,157 155,158.119288 155,159.5 C155,160.880712 153.880712,162 152.5,162 Z M157.5,170 C156.119288,170 155,168.880712 155,167.5 C155,166.119288 156.119288,165 157.5,165 C158.880712,165 160,166.119288 160,167.5 C160,168.880712 158.880712,170 157.5,170 Z M163.5,175 C162.119288,175 161,173.880712 161,172.5 C161,171.119288 162.119288,170 163.5,170 C164.880712,170 166,171.119288 166,172.5 C166,173.880712 164.880712,175 163.5,175 Z M171.5,178 C170.119288,178 169,176.880712 169,175.5 C169,174.119288 170.119288,173 171.5,173 C172.880712,173 174,174.119288 174,175.5 C174,176.880712 172.880712,178 171.5,178 Z M180.5,179 C179.119288,179 178,177.880712 178,176.5 C178,175.119288 179.119288,174 180.5,174 C181.880712,174 183,175.119288 183,176.5 C183,177.880712 181.880712,179 180.5,179 Z M188.5,178 C187.119288,178 186,176.880712 186,175.5 C186,174.119288 187.119288,173 188.5,173 C189.880712,173 191,174.119288 191,175.5 C191,176.880712 189.880712,178 188.5,178 Z M195.5,175 C194.119288,175 193,173.880712 193,172.5 C193,171.119288 194.119288,170 195.5,170 C196.880712,170 198,171.119288 198,172.5 C198,173.880712 196.880712,175 195.5,175 Z M202.5,170 C201.119288,170 200,168.880712 200,167.5 C200,166.119288 201.119288,165 202.5,165 C203.880712,165 205,166.119288 205,167.5 C205,168.880712 203.880712,170 202.5,170 Z M207.5,163 C206.119288,163 205,161.880712 205,160.5 C205,159.119288 206.119288,158 207.5,158 C208.880712,158 210,159.119288 210,160.5 C210,161.880712 208.880712,163 207.5,163 Z M139.5,129 C138.119288,129 137,127.880712 137,126.5 C137,125.119288 138.119288,124 139.5,124 C140.880712,124 142,125.119288 142,126.5 C142,127.880712 140.880712,129 139.5,129 Z M78.5,90 C77.1192881,90 76,88.8807119 76,87.5 C76,86.1192881 77.1192881,85 78.5,85 C79.8807119,85 81,86.1192881 81,87.5 C81,88.8807119 79.8807119,90 78.5,90 Z M80.5,98 C79.1192881,98 78,96.8807119 78,95.5 C78,94.1192881 79.1192881,93 80.5,93 C81.8807119,93 83,94.1192881 83,95.5 C83,96.8807119 81.8807119,98 80.5,98 Z M86.5,103 C85.1192881,103 84,101.880712 84,100.5 C84,99.1192881 85.1192881,98 86.5,98 C87.8807119,98 89,99.1192881 89,100.5 C89,101.880712 87.8807119,103 86.5,103 Z M94.5,106 C93.1192881,106 92,104.880712 92,103.5 C92,102.119288 93.1192881,101 94.5,101 C95.8807119,101 97,102.119288 97,103.5 C97,104.880712 95.8807119,106 94.5,106 Z M103.5,106 C102.119288,106 101,104.880712 101,103.5 C101,102.119288 102.119288,101 103.5,101 C104.880712,101 106,102.119288 106,103.5 C106,104.880712 104.880712,106 103.5,106 Z M111.5,106 C110.119288,106 109,104.880712 109,103.5 C109,102.119288 110.119288,101 111.5,101 C112.880712,101 114,102.119288 114,103.5 C114,104.880712 112.880712,106 111.5,106 Z M129.5,106 C128.119288,106 127,104.880712 127,103.5 C127,102.119288 128.119288,101 129.5,101 C130.880712,101 132,102.119288 132,103.5 C132,104.880712 130.880712,106 129.5,106 Z M138.5,110 C137.119288,110 136,108.880712 136,107.5 C136,106.119288 137.119288,105 138.5,105 C139.880712,105 141,106.119288 141,107.5 C141,108.880712 139.880712,110 138.5,110 Z M143.5,119 C142.119288,119 141,117.880712 141,116.5 C141,115.119288 142.119288,114 143.5,114 C144.880712,114 146,115.119288 146,116.5 C146,117.880712 144.880712,119 143.5,119 Z M131.5,132 C130.119288,132 129,130.880712 129,129.5 C129,128.119288 130.119288,127 131.5,127 C132.880712,127 134,128.119288 134,129.5 C134,130.880712 132.880712,132 131.5,132 Z M123.5,129 C122.119288,129 121,127.880712 121,126.5 C121,125.119288 122.119288,124 123.5,124 C124.880712,124 126,125.119288 126,126.5 C126,127.880712 124.880712,129 123.5,129 Z M119.5,122 C118.119288,122 117,120.880712 117,119.5 C117,118.119288 118.119288,117 119.5,117 C120.880712,117 122,118.119288 122,119.5 C122,120.880712 120.880712,122 119.5,122 Z M118.5,114 C117.119288,114 116,112.880712 116,111.5 C116,110.119288 117.119288,109 118.5,109 C119.880712,109 121,110.119288 121,111.5 C121,112.880712 119.880712,114 118.5,114 Z M119.5,106 C118.119288,106 117,104.880712 117,103.5 C117,102.119288 118.119288,101 119.5,101 C120.880712,101 122,102.119288 122,103.5 C122,104.880712 120.880712,106 119.5,106 Z M124.5,99 C123.119288,99 122,97.8807119 122,96.5 C122,95.1192881 123.119288,94 124.5,94 C125.880712,94 127,95.1192881 127,96.5 C127,97.8807119 125.880712,99 124.5,99 Z M130.5,94 C129.119288,94 128,92.8807119 128,91.5 C128,90.1192881 129.119288,89 130.5,89 C131.880712,89 133,90.1192881 133,91.5 C133,92.8807119 131.880712,94 130.5,94 Z M139.5,92 C138.119288,92 137,90.8807119 137,89.5 C137,88.1192881 138.119288,87 139.5,87 C140.880712,87 142,88.1192881 142,89.5 C142,90.8807119 140.880712,92 139.5,92 Z M147.5,93 C146.119288,93 145,91.8807119 145,90.5 C145,89.1192881 146.119288,88 147.5,88 C148.880712,88 150,89.1192881 150,90.5 C150,91.8807119 148.880712,93 147.5,93 Z M155.5,97 C154.119288,97 153,95.8807119 153,94.5 C153,93.1192881 154.119288,92 155.5,92 C156.880712,92 158,93.1192881 158,94.5 C158,95.8807119 156.880712,97 155.5,97 Z M259.5,213 C258.119288,213 257,211.880712 257,210.5 C257,209.119288 258.119288,208 259.5,208 C260.880712,208 262,209.119288 262,210.5 C262,211.880712 260.880712,213 259.5,213 Z M257.5,204 C256.119288,204 255,202.880712 255,201.5 C255,200.119288 256.119288,199 257.5,199 C258.880712,199 260,200.119288 260,201.5 C260,202.880712 258.880712,204 257.5,204 Z M258.5,195 C257.119288,195 256,193.880712 256,192.5 C256,191.119288 257.119288,190 258.5,190 C259.880712,190 261,191.119288 261,192.5 C261,193.880712 259.880712,195 258.5,195 Z M262.5,187 C261.119288,187 260,185.880712 260,184.5 C260,183.119288 261.119288,182 262.5,182 C263.880712,182 265,183.119288 265,184.5 C265,185.880712 263.880712,187 262.5,187 Z M267.5,179 C266.119288,179 265,177.880712 265,176.5 C265,175.119288 266.119288,174 267.5,174 C268.880712,174 270,175.119288 270,176.5 C270,177.880712 268.880712,179 267.5,179 Z M269.5,171 C268.119288,171 267,169.880712 267,168.5 C267,167.119288 268.119288,166 269.5,166 C270.880712,166 272,167.119288 272,168.5 C272,169.880712 270.880712,171 269.5,171 Z M269.5,163 C268.119288,163 267,161.880712 267,160.5 C267,159.119288 268.119288,158 269.5,158 C270.880712,158 272,159.119288 272,160.5 C272,161.880712 270.880712,163 269.5,163 Z M267.5,155 C266.119288,155 265,153.880712 265,152.5 C265,151.119288 266.119288,150 267.5,150 C268.880712,150 270,151.119288 270,152.5 C270,153.880712 268.880712,155 267.5,155 Z M262.5,147 C261.119288,147 260,145.880712 260,144.5 C260,143.119288 261.119288,142 262.5,142 C263.880712,142 265,143.119288 265,144.5 C265,145.880712 263.880712,147 262.5,147 Z M256.5,142 C255.119288,142 254,140.880712 254,139.5 C254,138.119288 255.119288,137 256.5,137 C257.880712,137 259,138.119288 259,139.5 C259,140.880712 257.880712,142 256.5,142 Z M248.5,139 C247.119288,139 246,137.880712 246,136.5 C246,135.119288 247.119288,134 248.5,134 C249.880712,134 251,135.119288 251,136.5 C251,137.880712 249.880712,139 248.5,139 Z M239.5,138 C238.119288,138 237,136.880712 237,135.5 C237,134.119288 238.119288,133 239.5,133 C240.880712,133 242,134.119288 242,135.5 C242,136.880712 240.880712,138 239.5,138 Z M231.5,139 C230.119288,139 229,137.880712 229,136.5 C229,135.119288 230.119288,134 231.5,134 C232.880712,134 234,135.119288 234,136.5 C234,137.880712 232.880712,139 231.5,139 Z M224.5,142 C223.119288,142 222,140.880712 222,139.5 C222,138.119288 223.119288,137 224.5,137 C225.880712,137 227,138.119288 227,139.5 C227,140.880712 225.880712,142 224.5,142 Z M217.5,147 C216.119288,147 215,145.880712 215,144.5 C215,143.119288 216.119288,142 217.5,142 C218.880712,142 220,143.119288 220,144.5 C220,145.880712 218.880712,147 217.5,147 Z M212.5,154 C211.119288,154 210,152.880712 210,151.5 C210,150.119288 211.119288,149 212.5,149 C213.880712,149 215,150.119288 215,151.5 C215,152.880712 213.880712,154 212.5,154 Z M340.5,226 C339.119288,226 338,224.880712 338,223.5 C338,222.119288 339.119288,221 340.5,221 C341.880712,221 343,222.119288 343,223.5 C343,224.880712 341.880712,226 340.5,226 Z M335.5,219 C334.119288,219 333,217.880712 333,216.5 C333,215.119288 334.119288,214 335.5,214 C336.880712,214 338,215.119288 338,216.5 C338,217.880712 336.880712,219 335.5,219 Z M329.5,214 C328.119288,214 327,212.880712 327,211.5 C327,210.119288 328.119288,209 329.5,209 C330.880712,209 332,210.119288 332,211.5 C332,212.880712 330.880712,214 329.5,214 Z M321.5,211 C320.119288,211 319,209.880712 319,208.5 C319,207.119288 320.119288,206 321.5,206 C322.880712,206 324,207.119288 324,208.5 C324,209.880712 322.880712,211 321.5,211 Z M312.5,211 C311.119288,211 310,209.880712 310,208.5 C310,207.119288 311.119288,206 312.5,206 C313.880712,206 315,207.119288 315,208.5 C315,209.880712 313.880712,211 312.5,211 Z M303.5,214 C302.119288,214 301,212.880712 301,211.5 C301,210.119288 302.119288,209 303.5,209 C304.880712,209 306,210.119288 306,211.5 C306,212.880712 304.880712,214 303.5,214 Z M296.5,219 C295.119288,219 294,217.880712 294,216.5 C294,215.119288 295.119288,214 296.5,214 C297.880712,214 299,215.119288 299,216.5 C299,217.880712 297.880712,219 296.5,219 Z M289.5,223 C288.119288,223 287,221.880712 287,220.5 C287,219.119288 288.119288,218 289.5,218 C290.880712,218 292,219.119288 292,220.5 C292,221.880712 290.880712,223 289.5,223 Z M280.5,225 C279.119288,225 278,223.880712 278,222.5 C278,221.119288 279.119288,220 280.5,220 C281.880712,220 283,221.119288 283,222.5 C283,223.880712 281.880712,225 280.5,225 Z M272.5,224 C271.119288,224 270,222.880712 270,221.5 C270,220.119288 271.119288,219 272.5,219 C273.880712,219 275,220.119288 275,221.5 C275,222.880712 273.880712,224 272.5,224 Z M264.5,220 C263.119288,220 262,218.880712 262,217.5 C262,216.119288 263.119288,215 264.5,215 C265.880712,215 267,216.119288 267,217.5 C267,218.880712 265.880712,220 264.5,220 Z" id="Oval-6" fill-opacity="0.814877717" fill="#DB996C"></path><g id="Triangle-1-+-Triangle-3"><polygon id="Triangle-1" fill="#C18862" transform="translate(49.940587, 47.144616) rotate(-54.000000) translate(-49.940587, -47.144616) " points="27.2548309 4.38547017 75.8369403 88.8575066 59.1455636 85.5454011 38.5425705 89.8388445 37.743359 81.8614082 23.9655359 79.3310343"></polygon><polygon id="Triangle-2" fill="#DB996C" transform="translate(80.499617, 71.101974) rotate(-54.000000) translate(-80.499617, -71.101974) " points="91.1147746 70.7118317 70.5179073 74.9811902 69.7092941 67.023534"></polygon><polygon id="Triangle-2" fill="#DB996C" transform="translate(45.854469, 52.572441) rotate(-54.000000) translate(-45.854469, -52.572441) " points="29.9946986 9.97940772 61.8497096 91.0938022 41.2500656 95.3838741 45.5632243 88.2880061"></polygon></g></g></g></svg> 