<?xml version="1.0" encoding="UTF-8"?> <svg xmlns="http://www.w3.org/2000/svg" xmlns:xlink="http://www.w3.org/1999/xlink" width="777px" height="566px" viewBox="0 0 777 566"><!-- Generator: Sketch 52.5 (67469) - http://www.bohemiancoding.com/sketch --><title>Group 2</title><desc>Created with Sketch.</desc><g id="Page-1" stroke="none" stroke-width="1" fill="none" fill-rule="evenodd"><g id="Group-2" transform="translate(-12.000000, -12.000000)"><g id="indesign" transform="translate(202.500000, 202.500000) rotate(-10.000000) translate(-202.500000, -202.500000) translate(28.000000, 28.000000)"><path d="M273.991846,349 L75.0081538,349 C33.5778269,349 0,315.422173 0,273.991846 L0,75.0081538 C0,33.5778269 33.5778269,0 75.0081538,0 L273.998558,0 C315.422173,0 349,33.5778269 349,75.0081538 L349,273.998558 C349,315.422173 315.422173,349 273.991846,349 Z" id="Path" fill="#AEDADD"></path><g id="Group" transform="translate(84.000000, 73.000000)" fill="#E5EFEF"><polygon id="Path" points="37.1117808 188.703623 17.8 188.703623 17.8 18.3312091 0.0975342466 17.7920559 0.0975342466 0 37.1117808 0"></polygon><path d="M101.484384,56.6110869 C109.349911,53.1942034 118.871692,51.482392 130.049726,51.482392 C141.22776,51.482392 150.655664,54.0029332 158.346849,59.0305369 L158.346849,0 L177.65863,0 L177.65863,188.703623 C162.282966,190.860236 148.060644,191.938542 135.011781,191.938542 C121.956212,191.938542 110.154568,189.242776 99.6068493,183.851244 C85.6594521,176.667027 78.6857534,164.172152 78.6857534,146.373357 L78.6857534,95.4233784 C78.6857534,76.5597556 86.2830616,63.6200786 101.484384,56.6110869 Z M158.346849,77.638062 C149.046349,72.6104583 138.854021,70.0966565 127.769863,70.0966565 C117.215438,70.0966565 109.571192,72.832859 104.837123,78.3187429 C100.096349,83.7978874 97.7293151,90.7664426 97.7293151,99.2109297 L97.7293151,147.195565 C97.7293151,155.464828 100.679726,161.941405 106.580548,166.605081 C113.017808,171.45072 120.970507,173.87691 130.452055,173.87691 C139.926897,173.87691 149.227397,173.162532 158.346849,171.727036 L158.346849,77.638062 Z" id="Shape" fill-rule="nonzero"></path></g></g><g id="illustrator" transform="translate(214.000000, 229.000000)"><path d="M273.991846,349 L75.0081538,349 C33.5778269,349 0,315.422173 0,273.991846 L0,75.0081538 C0,33.5778269 33.5778269,0 75.0081538,0 L273.998558,0 C315.422173,0 349,33.5778269 349,75.0081538 L349,273.998558 C349,315.422173 315.422173,349 273.991846,349 Z" id="Path" fill="#DB996C"></path><g id="Group" transform="translate(70.000000, 70.000000)" fill="#E9E0DA" fill-rule="nonzero"><path d="M135.479403,191 L113.68597,191 L95.121194,130.331982 L39.1578109,130.331982 L21.400199,191 L0.413930348,191 L55.839204,3.09021082 L78.1707463,3.09021082 L135.479403,191 Z M90.278209,110.467233 L66.8704478,34.2295473 L44.2698507,110.467233 L90.278209,110.467233 Z" id="Shape"></path><path d="M181.21198,11.4119301 C181.21198,14.452042 180.135761,17.0492237 177.983323,19.1967642 C175.830886,21.3375936 173.274866,22.4113638 170.315264,22.4113638 C167.355662,22.4113638 164.752557,21.2973272 162.512677,19.0558318 C160.26607,16.8210476 159.149493,14.2708433 159.149493,11.405219 C159.149493,8.53959471 160.26607,5.98939042 162.512677,3.74789508 C164.752557,1.5131108 167.355662,0.392363131 170.315264,0.392363131 C173.274866,0.392363131 175.830886,1.46613336 177.983323,3.6136738 C180.142488,5.77463638 181.21198,8.37181811 181.21198,11.4119301 Z M179.604378,191 L160.232438,191 L160.232438,56.5102795 L179.604378,56.5102795 L179.604378,191 Z" id="Shape"></path></g></g><g id="photoshop" transform="translate(583.500000, 242.500000) rotate(23.000000) translate(-583.500000, -242.500000) translate(409.000000, 68.000000)"><path d="M273.991846,349 L75.0081538,349 C33.5778269,349 0,315.422173 0,273.991846 L0,75.0081538 C0,33.5778269 33.5778269,0 75.0081538,0 L273.998558,0 C315.422173,0 349,33.5778269 349,75.0081538 L349,273.998558 C349,315.422173 315.422173,349 273.991846,349 Z" id="Path" fill="#6E7DA2"></path><g id="Group" transform="translate(62.000000, 74.000000)" fill="#CFD5E3"><path d="M19.5438712,187.924021 L0.23628169,187.924021 L0.23628169,0 L64.8630744,0 C82.3806895,0 95.3864964,5.45650818 103.880495,16.3762361 C112.36779,27.2892525 116.618141,41.6117475 116.618141,59.3235865 C116.618141,65.5921949 116.437132,71.0017221 116.081819,75.5655912 C115.719802,80.1361718 114.606934,85.8611429 112.729807,92.7539275 C110.85268,99.6400006 108.305151,105.277721 105.087219,109.667089 C101.869288,114.056458 96.955238,117.902188 90.3383662,121.210994 C83.7214944,124.52651 75.857674,126.177557 66.7402012,126.177557 L19.5438712,126.177557 L19.5438712,187.924021 Z M19.5438712,107.385155 L64.3267525,107.385155 C70.7626157,107.385155 76.2129873,106.130091 80.6845714,103.626674 C85.1494515,101.116546 88.4143113,98.4386292 90.4724467,95.5727878 C92.5238781,92.7069465 94.1328439,88.5927528 95.2993441,83.223495 C96.4591402,77.8475257 97.0893185,73.827294 97.1764708,71.1359535 C97.2636231,68.4580362 97.3105513,64.6055938 97.3105513,59.5920494 C97.3105513,32.3900473 85.9539344,18.7856905 63.2541087,18.7856905 L19.5438712,18.7856905 L19.5438712,107.385155 Z" id="Shape" fill-rule="nonzero"></path><path d="M135.657569,153.829234 L154.428837,153.023846 C155.139464,159.648167 158.451252,164.795943 164.350793,168.460462 C170.250334,172.131692 177.04151,173.963951 184.731026,173.963951 C192.420542,173.963951 199.077638,172.218942 204.709018,168.728925 C210.340398,165.238907 213.156089,160.232074 213.156089,153.701714 C213.156089,147.171355 210.74264,141.976598 205.915742,138.130867 C201.088845,134.285136 195.189304,131.244794 188.217119,129.003129 C181.244934,126.768175 174.232524,124.39899 167.166483,121.888862 C160.100441,119.385446 153.892515,115.445753 148.529296,110.076495 C141.912424,103.807887 138.60734,96.1634062 138.60734,87.1229185 C138.60734,78.0824307 142.227513,69.6661192 149.467859,61.8806955 C156.708205,54.0952718 168.46036,50.2092715 184.731026,50.2092715 C190.456263,50.2092715 195.812778,50.8804287 200.820684,52.2227431 C205.821886,53.5650576 209.401835,54.8671026 211.547123,56.115455 L214.765054,57.9879836 L208.597352,74.9078571 C202.872115,70.43795 195.363608,68.1962849 186.071831,68.1962849 C176.773349,68.1962849 169.848093,69.9412937 165.289356,73.4313112 C160.73062,76.9213288 158.451252,81.3509664 158.451252,86.7135126 C158.451252,92.6196961 161.307166,97.2775272 167.032402,100.673583 C172.750935,104.07635 179.186798,106.942191 186.339992,109.264395 C193.486482,111.593311 200.592747,114.183977 207.658789,117.049819 C214.718126,119.91566 220.70482,124.392279 225.625573,130.472963 C230.546327,136.553648 233,144.607534 233,154.634623 C233,164.661712 228.977586,173.386756 220.932757,180.809755 C212.887928,188.232753 201.129069,191.950964 185.66959,191.950964 C170.203406,191.950964 158.089234,188.279734 149.333779,180.943986 C140.571619,173.608238 136.012883,164.56775 135.657569,153.829234 Z" id="Path"></path></g></g></g></g></svg> 