<?xml version="1.0" encoding="UTF-8"?> <svg xmlns="http://www.w3.org/2000/svg" xmlns:xlink="http://www.w3.org/1999/xlink" width="735px" height="580px" viewBox="0 0 735 580"><!-- Generator: Sketch 52.5 (67469) - http://www.bohemiancoding.com/sketch --><title>Group 2</title><desc>Created with Sketch.</desc><g id="Page-1" stroke="none" stroke-width="1" fill="none" fill-rule="evenodd"><g id="Group-2"><g id="iMac"><g id="stand" transform="translate(256.000000, 511.000000)"><g id="Group" transform="translate(1.466667, 0.000000)" fill="#C7C7C7"><path d="M111,0 L111,62.6061776 L0.0245524565,62.6061776 C0.0245524565,62.6061776 14.2842693,56.9156029 23.0121742,46.9342834 C31.740079,36.9529639 31.740079,0 31.740079,0 L111,0 Z" id="Rectangle-6"></path><path d="M217.091219,0 L217.091219,62.6061776 L103.6,62.6061776 C103.6,62.6061776 118.182979,56.9156029 127.108742,46.9342834 C136.034506,36.9529639 136.034506,0 136.034506,0 L217.091219,0 Z" id="Rectangle-6" transform="translate(160.345610, 31.303089) scale(-1, 1) translate(-160.345610, -31.303089) "></path></g><rect id="Rectangle-6" fill="#A8A8A8" x="0.130632665" y="61.6071429" width="219.622217" height="7.39285714" rx="3.69642857"></rect><rect id="Rectangle-17" fill="#AAAAAA" x="33.4168159" y="0" width="153.049851" height="9.85714286"></rect></g><path d="M10.0065222,0 C4.4800726,0 0,4.48455154 0,10.0016771 L0,444 L735,444 L735,10.0016771 C735,4.47790337 730.520483,0 724.993478,0 L10.0065222,0 Z" id="screen-border" fill="#43403D"></path><path d="M-2.36028703e-16,442 L-2.36028703e-16,499.990448 C-2.36028703e-16,506.070856 4.92473842,511 10.9965668,511 L724.003433,511 C730.076669,511 735,506.065381 735,499.990448 L735,442 L-2.36028703e-16,442 Z" id="Rectangle-17" fill="#DEDEDE"></path><rect id="screen" fill="#FCF8F3" x="35" y="33" width="666" height="377"></rect><path d="M368,23 C370.761424,23 373,20.7614239 373,18 C373,15.2385761 370.761424,13 368,13 C365.238576,13 363,15.2385761 363,18 C363,20.7614239 365.238576,23 368,23 Z" id="camera" fill="#9E9E9E"></path></g><text id="&lt;Hello-World/&gt;" font-family="Monaco" font-size="32" font-weight="normal"><tspan x="65" y="103" fill="#000000">&lt;</tspan><tspan x="84.203125" y="103" fill="#6D7BA0">Hello</tspan><tspan x="180.21875" y="103" font-family="AppleBraille-Outline6Dot, Apple Braille" fill="#000000"> </tspan><tspan x="191.15625" y="103" fill="#D9986B">World</tspan><tspan x="287.171875" y="103" fill="#000000">/&gt;</tspan></text></g></g></svg> 