<?xml version="1.0" encoding="UTF-8"?> <svg xmlns="http://www.w3.org/2000/svg" xmlns:xlink="http://www.w3.org/1999/xlink" width="738px" height="641px" viewBox="0 0 738 641"><!-- Generator: Sketch 52.5 (67469) - http://www.bohemiancoding.com/sketch --><title>Group</title><desc>Created with Sketch.</desc><g id="Page-1" stroke="none" stroke-width="1" fill="none" fill-rule="evenodd"><g id="Group"><g id="CSS-3" transform="translate(204.886097, 443.672573) rotate(-120.000000) translate(-204.886097, -443.672573) translate(67.886097, 286.672573)"><polygon id="Path" fill="#6E7DA2" points="0 0 24.9193926 281.844275 136.812351 313.160305 248.666221 281.863847 273.624703 0"></polygon><polygon id="Path" fill="#CDD3E4" points="220.346064 92.1669924 217.19938 127.573679 207.700694 233.71545 136.812351 253.346687 136.753718 253.36626 65.9044641 233.71545 60.9596749 178.207786 95.6709229 178.207786 98.2508129 206.998962 136.773262 217.411542 136.792807 217.391969 175.37389 206.979389 180.631393 159.007145 59.298382 159.339878 55.8585286 126.536336 183.543542 125.029252 186.123432 89.9161527 52.4382198 90.2880305 50.1905883 57.6214962 136.812351 57.6214962 223.434114 57.6214962"></polygon></g><g id="HTML-5" transform="translate(232.000000, 0.000000)"><polygon id="Path" fill="#DB996C" points="0 0 24.8625 281.7 136.5 313 248.0985 281.719562 273 0"></polygon><polygon id="Path" fill="#F6E8DE" fill-rule="nonzero" points="219.391644 91.856472 89.4755002 91.856472 93.3962956 128.07966 216.566011 128.07966 208.508642 231.346756 136.278846 254.289881 64.0490499 231.346756 59.8396069 177.395789 97.7514772 177.395789 97.7514772 203.85952 137.291942 214.491509 176.596112 203.85952 179.645305 161.683835 58.6135625 161.683835 50.578125 58.6875 221.978859 58.6875"></polygon></g><g id="JS" transform="translate(534.275712, 442.155977) rotate(119.000000) translate(-534.275712, -442.155977) translate(397.275712, 285.155977)"><polygon id="Path" fill="#AEDADD" points="0 0 24.9193926 281.844275 136.812351 313.160305 248.666221 281.863847 273.624703 0"></polygon><g id="Unofficial_JavaScript_logo_2" transform="translate(43.364629, 89.911260)" fill="#E5F2F3" fill-rule="nonzero"><path d="M116.209685,93.3124777 C121.940684,102.684434 129.396855,109.573183 142.584026,109.573183 C153.662153,109.573183 160.738967,104.027808 160.738967,96.3656005 C160.738967,87.1836165 153.467958,83.9314753 141.274341,78.5896413 L134.590433,75.7174443 C115.297421,67.4853208 102.480575,57.1725506 102.480575,35.3709925 C102.480575,15.2882295 117.758725,0 141.635634,0 C158.634439,0 170.855153,5.92531972 179.661654,21.4397065 L158.842182,34.8282151 C154.258285,26.5960916 149.313096,23.3529967 141.635634,23.3529967 C133.804622,23.3529967 128.841368,28.328456 128.841368,34.8282151 C128.841368,42.8613203 133.809138,46.1134615 145.28017,51.0889208 L151.964079,53.9565946 C174.680335,63.713018 187.506214,73.6594135 187.506214,96.0218415 C187.506214,120.130203 168.597075,133.337786 143.202739,133.337786 C118.372922,133.337786 102.331542,121.487147 94.4824658,105.954667 L116.209685,93.3124777 Z M21.763348,95.632851 C25.9633715,103.09604 29.7840381,109.405827 38.9698962,109.405827 C47.7538164,109.405827 53.2951379,105.963714 53.2951379,92.5797283 L53.2951379,1.52882295 L80.0307718,1.52882295 L80.0307718,92.9415798 C80.0307718,120.668458 63.7997129,133.288032 40.1079671,133.288032 C18.7013953,133.288032 6.30455152,122.192757 0,108.829126 L21.763348,95.632851 Z" id="Shape"></path></g></g></g></g></svg> 